<svg xmlns="http://www.w3.org/2000/svg" xmlns:xlink="http://www.w3.org/1999/xlink" viewBox="0 0 1052.3622 744.09448">
  <defs>
    <filter id="e" color-interpolation-filters="sRGB">
      <feGaussianBlur stdDeviation=".573"/>
    </filter>
    <radialGradient id="a" cx="22.682" cy="-15.034" r="3.243" gradientUnits="userSpaceOnUse" gradientTransform="matrix(1 0 0 2.37143 0 19.952)">
      <stop stop-color="#e7e7e7" offset="0"/>
      <stop stop-color="#565656" offset="1"/>
    </radialGradient>
    <linearGradient id="b" x1="11.685" x2="10.783" y1="33.647" y2="35.871" gradientUnits="userSpaceOnUse" gradientTransform="translate(-1.034 -1.28) scale(1.04306)">
      <stop stop-color="#96d2e2" offset="0"/>
      <stop stop-color="#1d5868" offset="1"/>
    </linearGradient>
    <radialGradient id="c" cx="25.501" cy="30.67" r="15.188" gradientUnits="userSpaceOnUse" gradientTransform="matrix(1.55222 0 0 .6192 -14.018 5.14)">
      <stop offset="0"/>
      <stop stop-color="#5e5e5e" offset="1"/>
    </radialGradient>
    <linearGradient id="d">
      <stop stop-color="#666" offset="0"/>
      <stop stop-color="#ababab" stop-opacity="0" offset="1"/>
    </linearGradient>
    <radialGradient id="f" cx="22.682" cy="-15.034" r="3.243" xlink:href="#a" gradientUnits="userSpaceOnUse" gradientTransform="matrix(1 0 0 2.37143 0 19.952)"/>
    <radialGradient id="g" cx="22.682" cy="-15.034" r="3.243" xlink:href="#a" gradientUnits="userSpaceOnUse" gradientTransform="matrix(1 0 0 2.37143 0 19.952)"/>
    <linearGradient id="h" x1="11.685" x2="10.783" y1="33.647" y2="35.871" xlink:href="#b" gradientUnits="userSpaceOnUse" gradientTransform="translate(-95.62 79.96) scale(19.56562)"/>
    <radialGradient id="i" cx="25.501" cy="30.67" r="15.188" xlink:href="#c" gradientUnits="userSpaceOnUse" gradientTransform="matrix(29.1164 0 0 11.61495 -339.17 200.348)"/>
    <linearGradient id="j" x1="22.901" x2="21.304" y1="27.156" y2="16.709" xlink:href="#d" gradientUnits="userSpaceOnUse" gradientTransform="translate(-95.62 79.96) scale(19.56562)"/>
    <linearGradient id="k" x1="9.65" x2="20.748" y1="29.287" y2="18.285" xlink:href="#d" gradientUnits="userSpaceOnUse" gradientTransform="translate(-95.62 79.96) scale(19.56562)"/>
  </defs>
  <g transform="translate(151.895 -274.138)">
    <path fill="red" d="M131.39 525.19c-14.518 13.474-54.466 6.047-45.644-25.746 8.822-31.793 47.57-14.89 51.867 3.143-2.893 12.167-5.58 12.756-6.22 22.605z"/>
    <path fill="#a00" d="M131.39 525.19c-15.596 16.707-57.978 1.243-42.086-24.084 9.72-15.493 28.094-2.04 39.13 14.646-2.894 12.166 3.597-.41 2.956 9.44z"/>
    <path d="M4.902 37.413c-.088 2.787 13.92 8.038 18.822 7.254 2.332-.373 19.696-13.492 19.213-15.097-2.94-9.803-37.8.368-38.035 7.843z" transform="translate(-168.698 -28.51) scale(22.69597)" opacity=".5" filter="url(#e)"/>
    <g color="#000">
      <path d="M681.793 507.108c-24.166 0-43.832 46.613-43.832 103.922 0 48.01 13.85 88.19 32.53 100.035 16.26 12.253 34.93 12.54 54.08 9.544 23.37-2.15 42.07-47.63 42.07-103.57 0-57.31-19.66-103.93-43.83-103.93-18.11 10.33-23.59 3.62-41-6.01z" enable-background="accumulate"/>
      <path fill="url(#f)" d="M27.058-14.548a3.243 7.69 0 1 1-6.487 0 3.243 7.69 0 1 1 6.49 0z" transform="translate(561.12 715.627) scale(6.78678)" enable-background="accumulate"/>
    </g>
    <g color="#000">
      <path d="M381.365 696.173c-28.51 0-51.712 54.995-51.712 122.608 0 56.65 16.34 104.05 38.367 118.03 19.183 14.46 41.207 14.8 63.805 11.26 27.57-2.53 49.627-56.19 49.627-122.19 0-67.61-23.2-122.61-51.712-122.61-21.376 12.19-27.833 4.28-48.377-7.09z" enable-background="accumulate"/>
      <path fill="url(#g)" d="M27.058-14.548a3.243 7.69 0 1 1-6.487 0 3.243 7.69 0 1 1 6.49 0z" transform="translate(238.993 942.184) scale(8.00704)" enable-background="accumulate"/>
    </g>
    <path fill="#6d0000" d="M119.91 525.04c-5.308 10.077-26.592 4.822-27.098-3.334-.917-14.797 32.48-6.873 27.1 3.335z"/>
    <path fill="red" d="M410.022 303.735c-9.522.288-18.216 1.36-25.68 3.057-59.714 13.57-136.31 67.18-158.024 80.75-24.896 15.56-76.263 91.968-108.834 132.68C99.222 543.05-49.002 594.24-60.776 651.636c-4.93 24.028-6.918 43.975-7.95 61.144-.01.193.012.42 0 .612-4.977 9.093-7.948 21.16-7.948 34.85 0 23.635 10.34 41.21 21.4 48.914 103.03 71.773 222.02 110.383 343.626 135.736 45.224 7.786 95.994-23.234 95.994-23.234s-9.862-138.737 37.908-174.255c57.2-42.528 50.007 109.066 67.257 94.77 26.77-22.18 179.64-137.987 193.21-146.13 13.57-8.143.29-123.288 33.63-145.518 48.86-32.572 42.93 95.517 55.64 80.096 11.47-13.91 18.59-14.45 21.4-19.56 11.74-6.19 20.18-25.42 20.18-48.3 0-23.63-9.06-43.42-21.4-48.91-1.61-15.62-4.71-30.36-11.61-40.35-13.8-19.97-23.05-31.02-81.33-45.86-18.59-21.81-43.59-46.41-78.87-65.41-35.04-18.89-143.662-48.49-210.33-46.48z" color="#000" enable-background="accumulate"/>
    <path fill="#ff8080" d="M383.123 331.253c-29.195-.983-67.784 9.896-118.005 40.965-30.063 18.6 58.462 14.25 177.314 59.92 29.964 11.515 28.275-97.936-59.31-100.885zM93.313 575.82c-33.964.694-71.172 11.97-109.446 39.13-41.614 29.533 187.148 108.584 295.926 139.405 55.853 15.825-39.315-181.55-186.484-178.536z"/>
    <path fill="#a00" d="M620.355 365.505c-44.06-1.88-147.186 58.733-155.686 79.13-9.07 21.754-34.41 166.475-45.29 180.98-10.88 14.505-99.74 118.647-109.17 143.452-13.79 36.27-10.11 109.27-10.86 127.07-.64 15.164-13.73 27.92-44.03 29.433 11.02 2.544 21.94 5.03 33.01 7.338 45.22 7.786 95.99-23.234 95.99-23.234s-9.86-138.737 37.91-174.256c57.2-42.528 50.01 109.066 67.26 94.77 26.76-22.178 179.64-137.986 193.2-146.13 13.57-8.142.283-123.288 33.63-145.517 48.856-32.57 42.932 95.52 55.64 80.1 11.466-13.91 18.586-14.45 21.4-19.56 11.74-6.19 20.18-25.42 20.18-48.3 0-23.63-9.065-43.42-21.4-48.91-1.615-15.62-4.71-30.36-11.62-40.35-5.497-7.95-10.293-14.86-17.73-20.78-11.757-4.96-22.12-7.41-37.34-3.603-37.413-21.384-62.895-69.8-105.12-71.6z" color="#000" enable-background="accumulate"/>
    <path fill="#a00" d="M335.89 758.034c-19.943 5.44.475 14.84-30.82 14.504-33.463-.36-326.352-110.595-358.972-128.725-5.012-2.784-16.317 61.643-12.69 70.71 3.625 9.064 103.342 54.39 163.173 77.96 59.83 23.568 174.06 65.267 201.26 63.455 27.2-1.814 72.52-97.904 38.08-97.904z"/>
    <path fill="none" stroke="#000" stroke-width="13.345" d="M45.512 757.152l118.407 44.845m-119.28-77.84l135.71 54.285" stroke-linecap="round"/>
    <path fill="url(#h)" d="M-60.768 651.64c-4.484 21.857-6.755 40.098-7.95 56.25l89.27 37.91-17.12-62.37-64.2-31.795zm294.706 113.724l-40.354 48.302c100.635 40.812 116.07 41.506 151.634 23.845 21.585-10.71 2.042-63.45-17.12-53.19-19.162 10.27-42.243-4.79-94.16-18.95z"/>
    <path fill="#ccc" d="M428.367 304.973C384.36 316.95 267.863 366.35 259 397.91c-4.25 15.146-51.53 118.698-56.25 126.565-4.72 7.866-130.26 77.305-175.48 157.137l56.253 20.178c45.788-69.75 160.448-140.62 173.032-151.634 12.586-11.012 44.185-125.004 56.863-144.907 22.506-35.33 143.142-85.93 173.033-93.55.74-.2 1.24-.39 1.84-.61-20.74-3.7-41.4-5.33-59.91-6.12zm111.89 17.73c-1.642.374-3.392.26-4.89.613-62.69 14.774-151.966 61.46-170.59 92.937-8.01 13.54-56.42 143.155-61.142 151.022-4.72 7.866-108.858 74.332-154.08 161.416l63.588 22.01c45.788-77 134.768-151.01 147.353-162.02 12.586-11.01 40.864-129.59 51.97-150.41 20.762-38.92 120.164-87.79 183.43-98.44-15.41-5.73-34.72-11.73-55.64-17.12z"/>
    <path fill="url(#i)" d="M622.193 380.174c-13.57 0-49.52 6.596-38.86 17.965 15.75 16.79 35.264 64.09 45.86 92.32 6.94 18.5 65.224-27.9 70.652-38.76 8.143-16.29-64.08-71.54-77.65-71.54zM240.938 394.47c-2.29.014-3.8.174-4.892.612-16.067 6.372-98.25 113.977-100.886 133.29-1.513 11.09 262.293 96.65 268.408 81.32 10.857-27.143 52.88-148.524 42.188-160.193-10.326-11.28-170.48-55.24-204.836-55.03zm310.613 14.674c-13.57 0-66.68 29.06-72.76 43.412-5.96 14.08-40.21 143.55-26.9 147.353 19 5.42 146.21-76.58 151.64-87.44 8.15-16.29-38.4-103.33-51.97-103.33z"/>
    <path fill="#a00" d="M-72.385 772.702c4.026 11.193 10.37 19.755 17.12 24.457 103.03 71.77 222.02 110.38 343.627 135.73 9.288 1.6 18.857 1.07 28.125 0-2.7-29.59-14.867-63.45-16.508-43.41-2.03 24.75-29.87 19.66-52.59 16.5-59.32-8.23-274.73-95.85-319.77-133.29z" color="#000" enable-background="accumulate"/>
    <path fill="#b3b3b3" d="M29.48 781.613l-.893 48.115 135.14 52.662-.084-50.013L29.48 781.613z"/>
    <path fill="none" stroke="#000" stroke-width="13.345" d="M39.063 691.574L201.52 755.3" stroke-linecap="round"/>
    <path fill="#6d0000" d="M764.04 458.432c-22.346 1.498-53.664 23.344-112.502 78.262-91.333 85.247-185.91 64.9-303.26 226.84-27.264 37.624 2.906 57.765-18.85 90.4-21.757 32.636-20.49 59.99 13.96 58.176 5.85-.307 21.342-9.102 40.353-21.4-.87-38.078 1.04-127.43 38.52-155.302 45.85-34.085 55.6 32.093 65.6 79.31 66.09-49.445 135.14-102.04 200.99-153.293 3.64-36.68 2.35-106.116 27.52-122.897 35.01-23.336 47.68 18.97 53.45 61.36 7.36-5.615 13.1-11.453 19.32-16.113 11.58-8.666 19.85-20.05 24.46-33.018v-.612c-.15-23.36-9.17-42.862-21.4-48.302-1.61-15.62-4.71-30.36-11.61-40.354-4.99-2.31-10.52-3.46-16.51-3.06h-.01z"/>
    <path fill="#ff9e00" d="M-60.768 651.64c-4.484 21.857-6.755 40.098-7.95 56.25l16.51 7.337c3.183-23.654 7.53-41.81 11.005-53.798l-19.564-9.8zm392.53 131.454c-1.192.174-2.472.582-3.67 1.223-9.45 5.062-19.893 3.5-34.24-.612-7.366 19.133-12.41 41.36-14.675 60.53 29.95 7.496 44.573 3.934 66.034-6.724 20.24-10.05 4.41-57.03-13.45-54.41z"/>
    <path fill="url(#j)" d="M622.193 380.174c-13.57 0-49.793 6.363-39.13 17.73 33.142 7.09 73.438 19.477 105.775 30.573-19.35-21.795-57.174-48.302-66.645-48.302z"/>
    <path fill="url(#k)" d="M240.656 394.242c-2.29.014-3.8.174-4.89.612-16.07 6.372-98.25 113.977-100.887 133.29 111.49-62.302 150.82-91.69 181.97-119.884-33.34-8.122-63.45-14.092-76.2-14.015z"/>
    <path fill="#f55" d="M-64.037 729.184c5.315-2.867 160.52 68.315 154.108 68.896-38.85 3.52-175.43-57.394-154.1-68.896z"/>
    <path fill="#fff" d="M371.512 331.253c-6.59.44-13.335 2.028-20.788 3.668-33.72 15.37-67.543 33.28-83.154 49.53 9.702 3.56 28.137 6.83 53.194 12.23 18.74-19.08 58.917-40.56 95.994-57.47-9.496-4.52-20.4-7.5-33.63-7.94-3.65-.11-7.67-.26-11.617 0zm70.925 27.514c-31.393 16.014-58.665 34.387-72.148 50.136 16.2 4.362 33.59 10.107 51.97 16.51 8.8-9.708 21.89-19.774 36.68-29.35-2.06-12.306-7.2-25.794-16.51-37.296zm-316.11 220.106c-31.96 24.35-66.925 55.04-89.877 88.046 16.118 7.78 35.128 15.27 55.028 23.23 24.49-32.24 61.806-63.43 94.77-88.66-18.328-10.61-38.31-18.64-59.92-22.62zm100.887 52.582c-24.93 23.388-50.612 52.057-69.702 83.766 22.312 7.84 43.927 15.39 64.81 22.01 13.66-20.68 29.278-40.76 45.858-59.3-10.85-15.69-24.68-31.71-40.966-46.47z"/>
    <path fill="#a00" d="M631.14 532.244c8.602 48.944 12.823 110.925 15.74 169.848 10.493-34.365 10.673-123.322-15.74-169.848z"/>
    <path fill="#2b0000" d="M562.972 396.116c59.878 105.575 72.677 148.116 82.323 302.268 14.588-126.883-27.417-238.427-82.323-302.268z"/>
    <path fill="#a00" d="M460.2 642.147c22.177 56.182 39.974 119.976 38.365 172.562 13.21-47.94-4.712-142.33-38.366-172.57z"/>
    <path fill="#2b0000" d="M439.153 612.997c31.228 57.088 51.74 117.26 59.18 194.276 6.876-75.09-21.906-151.38-59.18-194.276z"/>
    <path fill="red" d="M449.3 622.75c10.737 17.895 62.63 26.842 66.21-5.367 3.578-32.21-39.368-35.788-59.05-25.05-31.3 17.072-7.16 28.63-7.16 30.42z"/>
    <path fill="#a00" d="M449.3 622.75c9.01 18.327 66.147 27.77 65.96-7.958-.17-32.406-42.148-12.732-61.765-11.35-20.15 1.42-9.376 15.793-4.195 19.31z"/>
    <path fill="#6d0000" d="M449.3 622.75c17.214 22.213 59.152 17.43 53.617-2.404-6.96-24.943-29.394 2.605-47.2-4.313-23.004-8.937-13.325 5.36-6.416 6.718z"/>
    <rect width="64.786" height="23.239" x="382.145" y="322.75" fill="#1a1a1a" transform="matrix(.96122 .27577 -.20533 .9787 0 0)" rx="5.27" ry="3.939" opacity=".5" color="#000" enable-background="accumulate"/>
    <path fill="#6d0000" d="M29.577 784.445c-3.665 10.564-8.204 36.737-1.658 45.764 1.48-12.2 1.96-28.39 1.65-45.77z"/>
    <path fill="#6d0000" d="M24.484 826.294c3.454 11.343 130.56 58.954 141.214 55.66C89.31 855.15 26.714 825.324 24.482 826.3z"/>
    <path fill="#963500" d="M332.057 782.844c-1.19.174-3.027.566-4.225 1.207-3.446 1.85-7.01 2.74-10.862 3.02-3.557 15.78-7.402 44.28-6.034 60.35 11.75-.78 22.277-3.63 34.397-9.65 20.236-10.05 4.58-57.53-13.276-54.91z" opacity=".5" color="#000" overflow="visible" enable-background="accumulate"/>
  </g>
</svg>
